<svg xmlns="http://www.w3.org/2000/svg" viewBox="0 0 465 130"><defs><clipPath id="a"><path d="M86.5 39.4L52.7 19.1a6.1 6.1 0 0 0-6.4 0L12.5 39.4a6 6 0 0 0-3 5.3v40.6a6 6 0 0 0 3 5.3l33.8 20.3a6.1 6.1 0 0 0 6.4 0l33.8-20.3a6 6 0 0 0 3-5.3V44.7a6 6 0 0 0-3-5.3z" fill="none"/></clipPath></defs><title>logos_logo-atecna-H</title><g clip-path="url(#a)"><path fill="#faba23" d="M7.4 39.7l42.1-25.2 42.1 25.2v50.6l-42.1 25.2L7.4 90.3V39.7z"/><path fill="#d53416" d="M49.5 65L7.4 39.7l42.1-25.2 42.1 25.2L49.5 65z"/><path fill="#d8752f" d="M7.4 90.3L49.5 65 7.4 39.7v50.6z"/><path fill="#d36529" d="M49.5 115.5L7.4 90.3 49.5 65v50.5z"/><path fill="#f4a11e" d="M91.6 90.3L49.5 65v50.5l42.1-25.2z"/></g><path fill="#3a3431" d="M217 47V32.5h-52V47h18.4v50.5h15.3V47H217zM236.8 70.9v-.5h21V58.6h-21V47h23.8V32.5h-39.2v65h40V83.7h-24.6V70.9zM265.1 65.3c.1 22.1 17 32.2 32.7 32.2h.2c13 0 27.7-6.5 30.3-24.8h-15.5c-1.8 6.6-7.3 10.5-14.8 10.5-9.6-.1-16.6-7.6-16.6-17.9s6.7-18.6 16.6-18.6c6 0 10.4 2.2 13.1 6.6l13-7.8c-5.2-8.2-14.9-13.1-26.1-13.1a33.9 33.9 0 0 0-22.6 8.2c-6.7 6.1-10.2 14.6-10.3 24.7zM130.3 89.3h26.3l.1.2 3.7 8H176v-1.9l-9.1-19.8H135.5l.2-.6 7.3-17.1.4-1 .4 1 4.4 10.1 11.9-7.1-13.3-28.6-9.4 5.6-26.5 57.5v1.9h15.6l3.7-8 .1-.2zM370.6 32.5v32.9l-29.8-29.9-8.2 4.9v57.1H348V64.8l32 32.7h6v-65h-15.4zM429 38.1l-9.4-5.6-20 43.3-9.2 19.8v1.9H406l3.7-7.9v-.3H436v.3l3.7 7.9h15.6v-1.9zm1.3 37.7h-15.4l7.7-17.8.4-.9.4.9 7.3 17.1.3.6h-.7z"/></svg>