<svg xmlns="http://www.w3.org/2000/svg" viewBox="0 0 475.1 327"><defs><clipPath id="a"><path d="M290.3 75l-48.2-28.9a9 9 0 0 0-9 0L184.8 75a8.9 8.9 0 0 0-4.3 7.5v57.9a8.6 8.6 0 0 0 4.3 7.5l48.2 28.9a9 9 0 0 0 9 0l48.2-28.9a8.9 8.9 0 0 0 4.3-7.5V82.5a8.9 8.9 0 0 0-4.2-7.5z" fill="none"/></clipPath></defs><title>logos_logo-atecna-V</title><path fill="#fff" d="M160.7 223.6v-16.9h-60.4v16.9h21.3v58.6h17.9v-58.6h21.2zm23 27.6v-.5H208V237h-24.3v-13.4h27.5v-16.9h-45.5v75.5h46.5v-16.1h-28.5v-14.9zm32.8-6.4c.1 25.7 19.8 37.3 38 37.3h.3c15.1 0 32.2-7.6 35.2-28.8h-18c-2.1 7.6-8.5 12.2-17.2 12.2-11.2-.1-19.3-8.8-19.3-20.8s7.7-21.5 19.3-21.5c7 0 12.1 2.6 15.2 7.6l15.1-9.1c-6-9.5-17.3-15.2-30.3-15.2a39.3 39.3 0 0 0-26.2 9.6c-7.9 7.1-12 17-12.1 28.7zM60.1 272.6h30.5l.1.3 4.3 9.3h18.1V280l-10.6-23H66l.3-.7 8.4-19.9.5-1.1.5 1.1 5.1 11.7 13.8-8.2-15.4-33.2-10.9 6.6L37.5 280v2.2h18.1l4.3-9.3.2-.3z"/><g clip-path="url(#a)"><path fill="#faba23" d="M177.5 75.5l60-36 60 36v72l-60 36-60-36v-72z"/><path fill="#d53416" d="M237.5 111.5l-60-36 60-36 60 36-60 36z"/><path fill="#d8752f" d="M177.5 147.5l60-36-60-36v72z"/><path fill="#d36529" d="M237.5 183.5l-60-36 60-36v72z"/><path fill="#f4a11e" d="M297.5 147.5l-60-36v72l60-36z"/></g><path d="M339 206.7v38.2l-34.6-34.7-9.5 5.7v66.3h17.8v-38l37.2 37.9h7v-75.4H339zm67.8 6.6l-10.9-6.5-23.3 50.2-10.6 23v2.2h18.1l4.3-9.2v-.3h30.4v.3l4.3 9.2h18.1V280zm1.5 43.7h-17.9l9-20.6.5-1.1.5 1.1 8.4 19.9.3.7h-.8z" fill="#fff"/></svg>